<svg width="64" height="64" viewBox="0 0 64 64" fill="none" xmlns="http://www.w3.org/2000/svg">
<g filter="url(#filter0_n_466_40849)">
<rect width="64" height="64" rx="16" fill="url(#paint0_linear_466_40849)" style=""/>
<g filter="url(#filter1_d_466_40849)">
<path fill-rule="evenodd" clip-rule="evenodd" d="M30.498 8.81405C29.304 9.02957 28.374 9.40515 27.2396 10.1298C25.8436 11.0217 24.84 12.1256 24.0924 13.5914C23.5299 14.6944 23.3689 15.2857 23.1724 16.9711C23.0825 17.743 23.003 18.3792 22.9958 18.3848C22.9885 18.3905 21.9629 18.4145 20.7165 18.4383C18.1822 18.4866 18.0317 18.5124 17.3306 19.0174C16.7972 19.4016 16.4012 19.8665 16.1355 20.4202C15.912 20.8857 15.8582 21.1888 15.2718 25.2778C14.5817 30.0903 11.9608 47.5419 11.7628 48.6427C11.6953 49.0182 11.6384 49.6838 11.6364 50.1219C11.6322 51.0429 11.8274 51.7219 12.3362 52.5567C12.9617 53.5828 14.3304 54.6524 15.5481 55.0666L16.0649 55.2425L31.7893 55.2623C49.432 55.2846 48.0911 55.3269 49.4054 54.7078C50.4708 54.2061 51.1607 53.5343 51.7087 52.4651C52.3969 51.1221 52.5076 50.2343 52.204 48.4909C52.0538 47.6286 51.7262 45.429 51.006 40.4498C50.831 39.2398 50.4392 36.5601 50.1353 34.4948C49.3958 29.469 48.9113 26.1201 48.6647 24.3295C48.2185 21.0884 48.1556 20.7479 47.9116 20.2502C47.4793 19.3686 46.5304 18.6702 45.5149 18.4865C45.2898 18.4458 44.2175 18.4125 43.1322 18.4125H41.1588L41.1183 18.1659C41.096 18.0303 41.0394 17.4678 40.9926 16.9159C40.8561 15.3091 40.4899 14.1883 39.6674 12.8603C38.6598 11.2335 37.57 10.2959 35.7123 9.45742C34.4515 8.96181 33.8339 8.81405 32.3653 8.73273C31.4942 8.7149 30.9054 8.74046 30.498 8.81405ZM31.2479 10.7546C28.636 11.0565 26.2847 13.0072 25.5679 15.4669C25.3927 16.0681 25.1693 17.8674 25.1693 18.4125C30.172 18.4238 39.0416 18.4024 39.0674 18.3779C39.1301 18.318 38.8332 16.1904 38.6862 15.6469C37.8345 12.4981 34.5955 10.3677 31.2479 10.7546ZM18.8773 20.4582C18.5314 20.558 18.1809 20.8504 18.016 21.1768C17.8667 21.4722 17.7817 21.9968 16.9396 27.8191C16.6861 29.5719 14.8256 41.9158 14.5156 43.9014C14.3821 44.7567 14.1658 46.1563 14.035 47.0117C13.9042 47.867 13.7618 48.7523 13.7185 48.979C13.5377 49.9257 13.6811 51.0487 14.0577 51.6348C14.3427 52.0783 14.9086 52.6123 15.3477 52.852C16.2411 53.3397 15.1515 53.3115 32.2924 53.2898L47.8738 53.2701L48.4016 53.0222C49.0607 52.7127 49.7136 52.0602 50.0627 51.3625C50.4378 50.6126 50.452 50.0122 50.1391 48.1116C50.0017 47.2772 49.7325 45.5191 49.5408 44.2048C49.349 42.8906 48.9208 39.9719 48.5893 37.7188C47.6945 31.6389 47.2533 28.6136 46.7141 24.8606C46.4473 23.0039 46.1734 21.3586 46.1054 21.2045C45.9535 20.8602 45.7329 20.6559 45.3473 20.5022C45.0853 20.3978 43.6185 20.3855 32.0696 20.3913C24.9289 20.3949 18.9923 20.425 18.8773 20.4582ZM32.9219 30.962C32.7469 31.017 31.9776 31.3505 31.2123 31.703C30.447 32.0556 28.6758 32.8639 27.2764 33.4991C25.8769 34.1343 24.6485 34.7144 24.5465 34.788C24.4104 34.8864 24.0884 35.6116 23.3358 37.5148C22.2376 40.2918 22.2269 40.3387 22.6411 40.5909C22.7415 40.6519 23.1278 40.7589 23.4995 40.8286C24.4085 40.9991 29.98 42.1116 31.1671 42.3596L32.1158 42.5579L34.3476 41.4746C35.5752 40.8788 37.6708 39.8619 39.0047 39.2149C40.3385 38.5679 41.5135 37.9666 41.6157 37.8787C41.7579 37.7563 41.7923 37.664 41.762 37.4848C41.7402 37.3561 41.3755 36.332 40.9516 35.209C40.5277 34.086 40.1085 32.9561 40.02 32.6981C39.9307 32.4375 39.7624 32.1405 39.6415 32.0299C39.3961 31.8057 39.4186 31.8102 35.8639 31.2664C34.6394 31.0791 33.548 30.9114 33.4387 30.8939C33.3294 30.8763 33.0968 30.907 32.9219 30.962ZM37.4144 33.4229C34.7398 34.6387 31.3934 36.2201 31.3485 36.2892C31.3231 36.3285 31.3684 36.6832 31.4493 37.0776C31.6962 38.2825 32.4179 41.2044 32.4856 41.2734C32.5206 41.3091 33.3129 40.9636 34.2463 40.5057C35.1797 40.0477 37.0435 39.1368 38.388 38.4814C40.4731 37.4652 40.8221 37.2713 40.7613 37.163C40.6721 37.0039 39.4102 33.6413 39.3045 33.281C39.2036 32.9369 39.1037 32.8258 38.8956 32.8262C38.8025 32.8263 38.136 33.0948 37.4144 33.4229ZM41.5866 39.0404C41.454 39.0711 41.1857 39.183 40.9902 39.289C40.7947 39.395 39.9191 39.8331 39.0444 40.2625C38.1698 40.6921 36.4566 41.5331 35.2374 42.1315C34.0182 42.7299 32.8752 43.2665 32.6973 43.3238C32.366 43.4307 31.9408 43.4212 31.2681 43.2919C30.5825 43.1602 30.0683 43.1965 29.886 43.3893C29.7125 43.573 29.4115 44.2416 28.2667 46.9859C27.4765 48.8804 27.4473 49.0402 27.854 49.2397C27.9736 49.2984 28.8945 49.5188 29.9003 49.7296C35.3409 50.8697 37.0866 51.2026 37.3264 51.146C37.4404 51.119 38.4998 50.5913 39.6805 49.9732C40.8613 49.355 42.4894 48.5083 43.2984 48.0915C44.9611 47.235 47.0468 46.1457 47.3712 45.9645C47.4902 45.898 47.6387 45.743 47.7012 45.6199C47.8322 45.3618 47.8231 45.3345 46.9153 43.2566C46.6237 42.589 46.1728 41.5478 45.9132 40.9429C45.6537 40.3379 45.3617 39.7677 45.2644 39.6758C45.1202 39.5396 44.8225 39.4654 43.6562 39.2751C41.7567 38.9651 41.8606 38.9769 41.5866 39.0404ZM20.3587 40.683C19.8339 40.9149 19.2528 41.1713 19.0674 41.2528C18.8819 41.3344 18.6786 41.4773 18.6157 41.5703C18.5527 41.6633 18.2521 42.3197 17.9477 43.029C17.6434 43.7383 17.1757 44.8056 16.9086 45.4007C16.6413 45.9958 16.4228 46.5315 16.4228 46.5912C16.4228 46.6509 16.5032 46.7841 16.6017 46.8871C16.7616 47.0547 17.113 47.1393 19.9214 47.6873C26.0612 48.8852 25.8776 48.8536 26.1284 48.7545C26.3943 48.6494 26.703 48.1957 26.6963 47.9199C26.6877 47.5615 25.3775 42.8885 25.1553 42.4231C25.106 42.3199 25.0084 42.2195 24.9385 42.2002C24.8686 42.1808 24.26 42.0229 23.5858 41.8493C21.9607 41.4308 21.6937 41.3175 21.5479 40.9845C21.4842 40.8391 21.4321 40.6167 21.4321 40.4901C21.4321 40.3636 21.4053 40.2604 21.3725 40.2608C21.3396 40.2612 20.8835 40.4512 20.3587 40.683ZM43.0897 41.2122C42.2643 41.6181 41.1058 42.1964 40.5154 42.4974C39.925 42.7983 38.8337 43.3452 38.0903 43.7127C37.3468 44.0801 36.6401 44.446 36.5197 44.5257C36.1025 44.8019 36.1027 44.8508 36.5295 46.3489C36.7462 47.1098 37.0179 48.0737 37.1333 48.4909C37.4354 49.5832 37.5751 49.9702 37.6673 49.9702C37.733 49.9702 39.3234 49.1417 42.6623 47.3681C42.8154 47.2868 43.7994 46.7749 44.8489 46.2305C45.8985 45.6862 46.7659 45.2357 46.7763 45.2293C46.8206 45.2026 44.7958 40.6701 44.6979 40.5766C44.6077 40.4905 44.3503 40.5922 43.0897 41.2122Z" fill="url(#paint1_linear_466_40849)" style=""/>
</g>
<g filter="url(#filter2_d_466_40849)">
<path d="M24.3236 26.7182C25.0335 26.2843 25.4403 25.6477 25.6786 24.5978C25.752 24.2745 25.8509 24.0099 25.8985 24.0099C25.946 24.0099 26.0613 24.2915 26.1547 24.6357C26.5379 26.0492 27.1058 26.7123 28.239 27.0696C28.5918 27.1808 28.9561 27.2719 29.0488 27.2719C29.3204 27.2719 29.1817 27.4513 28.861 27.5148C28.3998 27.6062 27.5211 28.0626 27.1567 28.3999C26.7494 28.7771 26.397 29.4246 26.1952 30.1664C25.9862 30.9348 25.8677 30.9235 25.6294 30.1129C25.2373 28.7791 24.4932 28.024 23.1911 27.6383C22.6166 27.4683 22.4077 27.2719 22.8013 27.2719C23.0633 27.2719 23.9387 26.9535 24.3236 26.7182Z" fill="url(#paint2_linear_466_40849)" style=""/>
<path d="M36.2083 24.4725C36.2517 24.2881 36.3076 24.1056 36.3326 24.0669C36.4055 23.9544 36.4827 24.0939 36.595 24.5409C36.8349 25.4963 37.2936 26.0004 38.1605 26.2611C38.5697 26.3841 38.7445 26.5891 38.4403 26.5891C38.1833 26.5891 37.3621 27.0432 37.1257 27.316C36.8704 27.6106 36.524 28.3566 36.5211 28.6184C36.5171 28.982 36.3069 28.7708 36.1427 28.2382C35.9103 27.4846 35.6136 27.1172 35.002 26.8256C34.7292 26.6955 34.4222 26.5891 34.3199 26.5891C34.0169 26.5891 34.1012 26.3843 34.4283 26.3257C35.3159 26.1669 35.9704 25.4853 36.2083 24.4725Z" fill="url(#paint3_linear_466_40849)" style=""/>
<path d="M19.1057 32.9453C20.1976 32.5282 20.4509 32.2997 20.7066 31.5011C20.8557 31.0351 21.014 30.8813 21.0141 31.2021C21.0141 31.2726 21.117 31.5377 21.2426 31.7911C21.506 32.3222 21.9132 32.6791 22.4179 32.8213C22.8266 32.9364 22.827 33.0174 22.4201 33.1508C21.7328 33.3763 21.2252 33.8869 21.0558 34.5234C21.0058 34.7114 20.9359 34.872 20.9006 34.8805C20.8652 34.8889 20.7665 34.6789 20.6812 34.4138C20.4917 33.8248 19.994 33.3152 19.4776 33.1816C18.8952 33.031 18.8899 33.0277 19.1057 32.9453Z" fill="url(#paint4_linear_466_40849)" style=""/>
</g>
<path d="M29.9693 43.3387C30.4927 43.3287 31.0177 43.3588 31.5435 43.4295C31.6059 43.4379 31.6686 43.4473 31.731 43.4569C31.6692 43.4701 31.6073 43.4829 31.5455 43.495C31.3973 43.524 31.2485 43.5477 31.1002 43.5702C31.6807 43.6946 32.2608 43.8212 32.8394 43.9539C33.644 44.1385 34.4467 44.3315 35.2476 44.5321C35.3111 44.548 35.3934 44.6183 35.4136 44.6805C35.896 46.1646 36.3501 47.6586 36.7769 49.162C36.8494 49.4172 36.9209 49.6728 36.9918 49.9286C36.8889 49.6839 36.7874 49.4384 36.6861 49.1932C36.1063 47.7895 35.5523 46.3768 35.025 44.9549C34.2569 44.794 33.4899 44.6254 32.7252 44.45C31.8718 44.2543 31.0206 44.0495 30.1714 43.8358C29.5513 45.0805 28.91 46.316 28.2476 47.5409C28.1214 47.7743 27.9936 48.0073 27.8658 48.2401C27.9628 47.993 28.0611 47.7462 28.1597 47.4998C28.5907 46.4227 29.0373 45.3523 29.4976 44.2889C29.5805 44.0366 29.673 43.7882 29.775 43.5438C29.789 43.5103 29.8026 43.4766 29.817 43.4432C29.839 43.3889 29.9107 43.3412 29.9693 43.3387ZM20.9605 40.6405C20.4195 40.9689 19.8706 41.2822 19.3179 41.5877C19.3807 41.5988 19.4437 41.6099 19.5064 41.6209C21.1568 41.9107 22.807 42.2026 24.4566 42.4969C24.5076 42.506 24.559 42.515 24.6099 42.5243L24.8101 42.7039C25.2929 44.3336 25.7128 45.9821 26.0699 47.6493C26.1099 47.8359 26.1496 48.0227 26.188 48.2098C26.1175 48.0323 26.0471 47.8546 25.9781 47.6766C25.3812 46.1363 24.8437 44.5783 24.3648 43.0028C22.7157 42.7086 21.0668 42.4118 19.4185 42.1131C19.2312 42.0792 19.0434 42.0456 18.856 42.0116C18.8476 42.01 18.8398 42.0061 18.8316 42.0038C18.7043 42.2843 18.5768 42.5647 18.4439 42.8426C17.9275 43.9229 17.3689 44.9839 16.7691 46.0243C16.7025 46.1397 16.6355 46.255 16.5679 46.37C16.615 46.2451 16.6624 46.1203 16.7105 45.9959C17.1436 44.8759 17.6189 43.7754 18.1353 42.6952C18.3062 42.3376 18.4816 41.9819 18.6617 41.6288C18.6718 41.6066 18.7107 41.5689 18.732 41.5575C19.4558 41.214 20.1888 40.8885 20.9312 40.5819C21.0545 40.531 21.1785 40.4804 21.3023 40.4305C21.1888 40.5008 21.0746 40.5712 20.9605 40.6405ZM33.1763 30.9334C34.8889 31.1886 36.5984 31.4675 38.3043 31.7704C38.5513 31.8142 38.7985 31.8583 39.0455 31.9032C38.7958 31.8783 38.546 31.8538 38.2964 31.828C36.5874 31.6511 34.8817 31.4502 33.1793 31.2264C32.7134 31.4405 32.2465 31.6529 31.7789 31.8631C31.7751 31.8648 31.7709 31.8663 31.7672 31.868C30.0489 32.7702 28.3095 33.6254 26.5455 34.4266C26.0777 34.6391 25.6073 34.8463 25.1363 35.0516C25.1633 35.0564 25.1903 35.0614 25.2173 35.0663C26.8513 35.3571 28.4827 35.6622 30.1109 35.9823C30.2065 36.0011 30.3025 36.0207 30.398 36.0399L30.5943 36.2196C31.0422 37.7941 31.4306 39.386 31.7593 40.995C31.7972 41.1803 31.8344 41.3659 31.8707 41.5516C31.8021 41.3752 31.7345 41.1982 31.6675 41.0213C31.1048 39.5346 30.5981 38.0316 30.147 36.5125C30.102 36.5038 30.0563 36.495 30.0113 36.4862C28.3834 36.1661 26.7584 35.8316 25.1363 35.4823C25.0007 35.4531 24.8647 35.4228 24.7291 35.3934C24.1295 36.6539 23.5052 37.9035 22.8531 39.1405C22.7411 39.3529 22.6278 39.5654 22.5142 39.7772C22.5968 39.5517 22.6801 39.3262 22.7642 39.1014C23.2919 37.6906 23.8505 36.2926 24.439 34.909C24.4556 34.8707 24.5188 34.8088 24.5562 34.7909C25.1463 34.509 25.7392 34.2331 26.3345 33.9627C27.2694 33.5381 28.211 33.1285 29.1588 32.7323C29.9879 32.3447 30.8192 31.9621 31.6539 31.5868C32.134 31.3709 32.6153 31.157 33.0972 30.9452C33.114 30.9375 33.1577 30.9311 33.1763 30.9334Z" fill="#FDD277" style="fill:#FDD277;fill:color(display-p3 0.9932 0.8253 0.4675);fill-opacity:1;"/>
</g>
<defs>
<filter id="filter0_n_466_40849" x="0" y="0" width="64" height="64" filterUnits="userSpaceOnUse" color-interpolation-filters="sRGB">
<feFlood flood-opacity="0" result="BackgroundImageFix"/>
<feBlend mode="normal" in="SourceGraphic" in2="BackgroundImageFix" result="shape"/>
<feTurbulence type="fractalNoise" baseFrequency="27.5 27.5" stitchTiles="stitch" numOctaves="3" result="noise" seed="9409" />
<feComponentTransfer in="noise" result="coloredNoise1">
<feFuncR type="linear" slope="2" intercept="-0.5" />
<feFuncG type="linear" slope="2" intercept="-0.5" />
<feFuncB type="linear" slope="2" intercept="-0.5" />
<feFuncA type="discrete" tableValues="1 1 1 1 1 1 1 1 1 1 1 1 1 1 1 1 1 1 1 1 1 1 1 1 1 1 1 1 1 1 1 1 1 1 1 1 1 1 1 1 1 1 1 1 1 1 1 1 1 1 1 0 0 0 0 0 0 0 0 0 0 0 0 0 0 0 0 0 0 0 0 0 0 0 0 0 0 0 0 0 0 0 0 0 0 0 0 0 0 0 0 0 0 0 0 0 0 0 0 0 "/>
</feComponentTransfer>
<feComposite operator="in" in2="shape" in="coloredNoise1" result="noise1Clipped" />
<feComponentTransfer in="noise1Clipped" result="color1">
<feFuncA type="table" tableValues="0 0.15" />
</feComponentTransfer>
<feMerge result="effect1_noise_466_40849">
<feMergeNode in="shape" />
<feMergeNode in="color1" />
</feMerge>
</filter>
<filter id="filter1_d_466_40849" x="11.2727" y="8.72727" width="42.9091" height="49.0909" filterUnits="userSpaceOnUse" color-interpolation-filters="sRGB">
<feFlood flood-opacity="0" result="BackgroundImageFix"/>
<feColorMatrix in="SourceAlpha" type="matrix" values="0 0 0 0 0 0 0 0 0 0 0 0 0 0 0 0 0 0 127 0" result="hardAlpha"/>
<feOffset dx="0.727273" dy="1.45455"/>
<feGaussianBlur stdDeviation="0.545455"/>
<feComposite in2="hardAlpha" operator="out"/>
<feColorMatrix type="matrix" values="0 0 0 0 0 0 0 0 0 0 0 0 0 0 0 0 0 0 0.25 0"/>
<feBlend mode="normal" in2="BackgroundImageFix" result="effect1_dropShadow_466_40849"/>
<feBlend mode="normal" in="SourceGraphic" in2="effect1_dropShadow_466_40849" result="shape"/>
</filter>
<filter id="filter2_d_466_40849" x="18.6113" y="24.0099" width="21.801" height="13.4163" filterUnits="userSpaceOnUse" color-interpolation-filters="sRGB">
<feFlood flood-opacity="0" result="BackgroundImageFix"/>
<feColorMatrix in="SourceAlpha" type="matrix" values="0 0 0 0 0 0 0 0 0 0 0 0 0 0 0 0 0 0 127 0" result="hardAlpha"/>
<feOffset dx="0.727273" dy="1.45455"/>
<feGaussianBlur stdDeviation="0.545455"/>
<feComposite in2="hardAlpha" operator="out"/>
<feColorMatrix type="matrix" values="0 0 0 0 0 0 0 0 0 0 0 0 0 0 0 0 0 0 0.25 0"/>
<feBlend mode="normal" in2="BackgroundImageFix" result="effect1_dropShadow_466_40849"/>
<feBlend mode="normal" in="SourceGraphic" in2="effect1_dropShadow_466_40849" result="shape"/>
</filter>
<linearGradient id="paint0_linear_466_40849" x1="0" y1="0" x2="64" y2="64" gradientUnits="userSpaceOnUse">
<stop stop-color="#85572A" style="stop-color:#85572A;stop-color:color(display-p3 0.5216 0.3412 0.1647);stop-opacity:1;"/>
<stop offset="1" stop-color="#563614" style="stop-color:#563614;stop-color:color(display-p3 0.3373 0.2118 0.0784);stop-opacity:1;"/>
</linearGradient>
<linearGradient id="paint1_linear_466_40849" x1="13.7238" y1="15.367" x2="63.9023" y2="64.6548" gradientUnits="userSpaceOnUse">
<stop stop-color="#FFD170" style="stop-color:#FFD170;stop-color:color(display-p3 1.0000 0.8212 0.4400);stop-opacity:1;"/>
<stop offset="1" stop-color="#8E6F2F" style="stop-color:#8E6F2F;stop-color:color(display-p3 0.5550 0.4368 0.1850);stop-opacity:1;"/>
</linearGradient>
<linearGradient id="paint2_linear_466_40849" x1="19.9805" y1="25.5606" x2="29.2847" y2="44.4106" gradientUnits="userSpaceOnUse">
<stop stop-color="#FFD170" style="stop-color:#FFD170;stop-color:color(display-p3 1.0000 0.8212 0.4400);stop-opacity:1;"/>
<stop offset="1" stop-color="#8E6F2F" style="stop-color:#8E6F2F;stop-color:color(display-p3 0.5550 0.4368 0.1850);stop-opacity:1;"/>
</linearGradient>
<linearGradient id="paint3_linear_466_40849" x1="19.9805" y1="25.5606" x2="29.2847" y2="44.4106" gradientUnits="userSpaceOnUse">
<stop stop-color="#FFD170" style="stop-color:#FFD170;stop-color:color(display-p3 1.0000 0.8212 0.4400);stop-opacity:1;"/>
<stop offset="1" stop-color="#8E6F2F" style="stop-color:#8E6F2F;stop-color:color(display-p3 0.5550 0.4368 0.1850);stop-opacity:1;"/>
</linearGradient>
<linearGradient id="paint4_linear_466_40849" x1="19.9805" y1="25.5606" x2="29.2847" y2="44.4106" gradientUnits="userSpaceOnUse">
<stop stop-color="#FFD170" style="stop-color:#FFD170;stop-color:color(display-p3 1.0000 0.8212 0.4400);stop-opacity:1;"/>
<stop offset="1" stop-color="#8E6F2F" style="stop-color:#8E6F2F;stop-color:color(display-p3 0.5550 0.4368 0.1850);stop-opacity:1;"/>
</linearGradient>
</defs>
</svg>
